<svg width="500" height="500" viewBox="0 0 500 500" fill="none" xmlns="http://www.w3.org/2000/svg">
<rect width="500" height="500" rx="1" fill="#EEF0FF"/>
<path fill-rule="evenodd" clip-rule="evenodd" d="M98.5025 208.89L93.4234 237.816C93.2483 239.219 91.8471 240.446 90.2709 240.446H69.7793C68.5533 240.446 67.5024 239.744 67.5024 238.517V238.167L82.3895 153.668C83.6155 147.532 85.7172 146.13 91.3217 145.253C97.9771 144.201 109.712 143.5 118.819 143.5C136.508 143.5 154.373 150.863 154.373 168.92C154.373 196.093 135.633 209.241 109.361 209.241C106.559 209.241 102.005 209.065 98.5025 208.89ZM110.349 165.509C108.393 165.55 106.539 165.589 106.209 165.589L102.531 187.327C103.056 187.502 110.762 187.502 111.463 187.502C121.621 187.502 127.751 182.419 127.751 172.601C127.751 166.991 122.847 165.414 115.316 165.414C114.854 165.414 112.54 165.462 110.353 165.508L110.352 165.509L110.35 165.509L110.349 165.509Z" fill="#0821FB"/>
<path d="M83.6155 325.996L78.7115 301.979L67.8527 257.626C67.8527 257.421 67.7926 257.275 67.7428 257.155C67.7076 257.07 67.6776 256.997 67.6776 256.925C67.6776 255.873 68.5533 254.821 69.7793 254.821H92.5477C93.7737 254.821 94.4742 256.048 94.6494 257.275L100.954 291.461C101.305 292.512 101.655 292.688 102.005 292.688C102.356 292.688 103.056 292.512 103.582 291.461L121.971 257.451C122.672 256.223 123.723 254.996 124.949 254.996H148.768C149.819 254.996 150.169 255.522 150.169 256.223C150.169 256.574 149.994 257.1 149.819 257.626L123.022 301.979L109.186 328.626L105.858 347.91C105.508 349.312 104.107 350.539 102.706 350.539H81.6889C80.4629 350.539 79.7623 349.663 79.7623 348.436V347.91L83.6155 325.996Z" fill="#0821FB"/>
<path fill-rule="evenodd" clip-rule="evenodd" d="M306.045 143.5C296.938 143.5 285.203 144.201 278.548 145.253C272.944 146.13 270.842 147.532 269.616 153.668L257.881 219.759C257.706 221.162 258.582 222.214 259.983 222.214H281.175C282.576 222.214 283.802 221.162 283.977 219.759L285.904 208.715C289.232 208.89 293.61 209.065 296.237 209.065C322.509 209.065 341.249 195.917 341.249 168.744C341.599 150.863 323.91 143.5 306.045 143.5ZM298.689 187.502C297.989 187.502 290.283 187.502 289.757 187.327L293.61 165.414C293.941 165.414 295.794 165.375 297.751 165.333C299.938 165.287 302.255 165.238 302.718 165.238C310.249 165.238 314.978 166.816 314.978 172.426C314.978 182.419 308.848 187.502 298.689 187.502Z" fill="#0821FB"/>
<path d="M304.644 254.821H330.04C331.091 254.821 331.616 255.172 331.616 255.522C331.616 256.048 331.441 256.574 330.915 257.275L294.661 302.154L314.452 347.559C314.452 347.647 314.496 347.822 314.54 347.998C314.583 348.173 314.627 348.348 314.627 348.436C314.627 349.488 313.752 350.189 312.526 350.189H287.305C285.729 350.189 285.379 349.312 285.028 348.085L268.74 306.011L261.559 347.735C261.209 349.137 259.808 350.364 258.407 350.364H236.689C235.989 350.364 235.288 349.663 235.288 348.962V347.91L254.554 239.394C254.729 238.517 255.429 237.991 256.305 237.991H278.198C279.599 237.991 280.65 239.394 280.475 240.796L270.316 297.421L301.492 256.925C302.367 255.698 303.243 254.821 304.644 254.821Z" fill="#0821FB"/>
<path fill-rule="evenodd" clip-rule="evenodd" d="M216.373 143.5C195.706 143.5 178.192 152.09 170.836 179.438L145.616 318.633L145.575 319.118C145.414 321.035 145.265 322.815 145.265 324.594C145.265 346.332 160.152 356.5 178.367 356.5C201.136 356.5 217.774 346.507 224.429 318.633L249.475 179.438C249.519 179.082 249.575 178.681 249.633 178.261C249.805 177.025 250 175.621 250 174.705C249.825 152.441 234.237 143.5 216.373 143.5ZM197.808 318.633C195.006 329.152 190.452 333.535 182.395 333.535C175.39 333.535 171.887 330.204 171.887 322.14C171.887 321.634 171.927 321.088 171.969 320.521C172.015 319.908 172.062 319.271 172.062 318.633L197.458 179.438C199.559 169.446 204.814 165.94 212.169 166.465C220.051 166.991 223.554 171.9 222.678 177.86L197.808 318.633Z" fill="#0821FB"/>
<path fill-rule="evenodd" clip-rule="evenodd" d="M353.509 179.438C360.865 152.09 378.379 143.5 399.046 143.5C416.91 143.5 432.498 152.441 432.498 174.705C432.498 175.621 432.303 177.025 432.131 178.261C432.072 178.682 432.017 179.082 431.972 179.438L406.927 318.633C400.272 346.507 383.633 356.5 360.865 356.5C342.65 356.5 327.763 346.332 327.763 324.594C327.763 322.815 327.912 321.036 328.073 319.119C328.086 318.958 328.1 318.796 328.113 318.633L353.509 179.438ZM364.893 333.535C372.95 333.535 377.503 329.152 380.305 318.633L405.176 177.86C406.051 171.9 402.548 166.991 394.667 166.465C387.311 165.94 382.057 169.446 379.955 179.438L354.56 318.633C354.56 319.271 354.512 319.908 354.467 320.52C354.425 321.088 354.384 321.634 354.384 322.14C354.384 330.204 357.887 333.535 364.893 333.535Z" fill="#0821FB"/>
</svg>
