<svg width="92" height="92" viewBox="0 0 92 92" fill="none" xmlns="http://www.w3.org/2000/svg">
<rect width="92" height="92" rx="1" fill="#0821FB"/>
<path fill-rule="evenodd" clip-rule="evenodd" d="M19.4357 38.7916L18.5451 43.8636C18.5144 44.1095 18.2687 44.3247 17.9923 44.3247H14.3992C14.1843 44.3247 14 44.2018 14 43.9866V43.9251L16.6104 29.1087C16.8253 28.0328 17.1939 27.7869 18.1766 27.6332C19.3436 27.4488 21.4012 27.3258 22.9981 27.3258C26.0998 27.3258 29.2322 28.6169 29.2322 31.783C29.2322 36.5476 25.9463 38.8531 21.3397 38.8531C20.8484 38.8531 20.0499 38.8224 19.4357 38.7916ZM21.513 31.1849C21.1699 31.1921 20.8449 31.199 20.7869 31.199L20.142 35.0107C20.2342 35.0414 21.5854 35.0414 21.7083 35.0414C23.4894 35.0414 24.5643 34.15 24.5643 32.4286C24.5643 31.4449 23.7044 31.1682 22.3839 31.1682C22.3029 31.1682 21.8971 31.1768 21.5137 31.1849L21.5134 31.1849L21.5132 31.1849L21.513 31.1849Z" fill="#EEF0FF"/>
<path d="M16.8253 59.3256L15.9654 55.1143L14.0614 47.3372C14.0614 47.3012 14.0509 47.2757 14.0421 47.2546C14.036 47.2397 14.0307 47.227 14.0307 47.2142C14.0307 47.0298 14.1843 46.8454 14.3992 46.8454H18.3916C18.6065 46.8454 18.7294 47.0605 18.7601 47.2757L19.8656 53.2699C19.9271 53.4543 19.9885 53.4851 20.0499 53.4851C20.1113 53.4851 20.2342 53.4543 20.3263 53.2699L23.5509 47.3065C23.6737 47.0913 23.858 46.8761 24.0729 46.8761H28.2495C28.4338 46.8761 28.4952 46.9683 28.4952 47.0913C28.4952 47.1528 28.4645 47.245 28.4338 47.3372L23.7351 55.1143L21.309 59.7867L20.7255 63.168C20.6641 63.4139 20.4184 63.6291 20.1727 63.6291H16.4875C16.2725 63.6291 16.1497 63.4754 16.1497 63.2602V63.168L16.8253 59.3256Z" fill="#EEF0FF"/>
<path fill-rule="evenodd" clip-rule="evenodd" d="M55.8273 27.3258C54.2303 27.3258 52.1727 27.4488 51.0058 27.6332C50.023 27.7869 49.6545 28.0328 49.4395 29.1087L47.382 40.6975C47.3512 40.9434 47.5048 41.1278 47.7505 41.1278H51.4664C51.7121 41.1278 51.9271 40.9434 51.9578 40.6975L52.2956 38.7609C52.8791 38.7916 53.6468 38.8224 54.1075 38.8224C58.714 38.8224 62 36.5169 62 31.7523C62.0614 28.6169 58.9597 27.3258 55.8273 27.3258ZM54.5374 35.0414C54.4146 35.0414 53.0633 35.0414 52.9712 35.0107L53.6468 31.1682C53.7048 31.1682 54.0298 31.1614 54.3728 31.1542C54.7564 31.1461 55.1627 31.1375 55.2438 31.1375C56.5643 31.1375 57.3935 31.4142 57.3935 32.3978C57.3935 34.15 56.3186 35.0414 54.5374 35.0414Z" fill="#EEF0FF"/>
<path d="M55.5816 46.8454H60.0345C60.2188 46.8454 60.3109 46.9068 60.3109 46.9683C60.3109 47.0605 60.2802 47.1528 60.1881 47.2757L53.8311 55.145L57.3013 63.1065C57.3013 63.1219 57.309 63.1526 57.3167 63.1834C57.3244 63.2141 57.3321 63.2449 57.3321 63.2602C57.3321 63.4447 57.1785 63.5676 56.9635 63.5676H52.5413C52.2649 63.5676 52.2035 63.4139 52.142 63.1987L49.286 55.8213L48.0269 63.1373C47.9654 63.3832 47.7198 63.5984 47.4741 63.5984H43.666C43.5432 63.5984 43.4203 63.4754 43.4203 63.3524V63.168L46.7985 44.1403C46.8292 43.9866 46.952 43.8944 47.1056 43.8944H50.9443C51.19 43.8944 51.3743 44.1403 51.3436 44.3862L49.5624 54.315L55.0288 47.2142C55.1823 46.9991 55.3359 46.8454 55.5816 46.8454Z" fill="#EEF0FF"/>
<path fill-rule="evenodd" clip-rule="evenodd" d="M40.1036 27.3258C36.4798 27.3258 33.4088 28.832 32.119 33.6274L27.6967 58.0345L27.6896 58.1196C27.6615 58.4557 27.6353 58.7677 27.6353 59.0797C27.6353 62.8914 30.2457 64.6742 33.4395 64.6742C37.4319 64.6742 40.3493 62.9221 41.5163 58.0345L45.9079 33.6274C45.9157 33.565 45.9254 33.4947 45.9357 33.421C45.9658 33.2042 46 32.958 46 32.7974C45.9693 28.8935 43.2361 27.3258 40.1036 27.3258ZM36.8484 58.0345C36.357 59.8789 35.5585 60.6474 34.1459 60.6474C32.9175 60.6474 32.3033 60.0633 32.3033 58.6493C32.3033 58.5607 32.3104 58.4649 32.3177 58.3654C32.3257 58.258 32.334 58.1463 32.334 58.0345L36.7869 33.6274C37.1555 31.8752 38.0768 31.2605 39.3666 31.3527C40.7486 31.4449 41.3628 32.3056 41.2092 33.3507L36.8484 58.0345Z" fill="#EEF0FF"/>
<path fill-rule="evenodd" clip-rule="evenodd" d="M64.1497 33.6274C65.4395 28.832 68.5106 27.3258 72.1344 27.3258C75.2668 27.3258 78 28.8935 78 32.7974C78 32.958 77.9658 33.2042 77.9357 33.421C77.9254 33.4947 77.9157 33.565 77.9079 33.6274L73.5163 58.0345C72.3493 62.9221 69.4319 64.6742 65.4395 64.6742C62.2457 64.6742 59.6353 62.8914 59.6353 59.0797C59.6353 58.7677 59.6615 58.4558 59.6896 58.1197C59.692 58.0915 59.6944 58.0631 59.6967 58.0345L64.1497 33.6274ZM66.1459 60.6474C67.5585 60.6474 68.357 59.8789 68.8484 58.0345L73.2092 33.3507C73.3628 32.3056 72.7486 31.4449 71.3666 31.3527C70.0768 31.2605 69.1555 31.8752 68.7869 33.6274L64.334 58.0345C64.334 58.1463 64.3257 58.258 64.3177 58.3654C64.3104 58.4649 64.3033 58.5606 64.3033 58.6493C64.3033 60.0633 64.9175 60.6474 66.1459 60.6474Z" fill="#EEF0FF"/>
</svg>
