<svg width="92" height="92" viewBox="0 0 92 92" fill="none" xmlns="http://www.w3.org/2000/svg">
<rect width="92" height="92" rx="1" fill="#EEF0FF"/>
<path fill-rule="evenodd" clip-rule="evenodd" d="M20.2658 39.0169L19.4031 43.9304C19.3733 44.1686 19.1353 44.3771 18.8676 44.3771H15.3868C15.1785 44.3771 15 44.2579 15 44.0495V43.9899L17.5288 29.6365C17.737 28.5943 18.094 28.356 19.0461 28.2072C20.1766 28.0285 22.1699 27.9094 23.7169 27.9094C26.7217 27.9094 29.7562 29.1601 29.7562 32.2273C29.7562 36.843 26.5729 39.0764 22.1104 39.0764C21.6344 39.0764 20.8608 39.0467 20.2658 39.0169ZM22.2782 31.6479C21.9458 31.6549 21.631 31.6615 21.5749 31.6615L20.9501 35.3541C21.0393 35.3839 22.3484 35.3839 22.4674 35.3839C24.1929 35.3839 25.2342 34.5203 25.2342 32.8527C25.2342 31.8997 24.4012 31.6317 23.1219 31.6317C23.0434 31.6317 22.6503 31.64 22.2789 31.6478L22.2786 31.6478L22.2784 31.6478L22.2782 31.6479Z" fill="#0821FB"/>
<path d="M17.737 58.9091L16.904 54.8294L15.0595 47.2954C15.0595 47.2605 15.0493 47.2358 15.0408 47.2154C15.0349 47.2009 15.0297 47.1886 15.0297 47.1763C15.0297 46.9976 15.1785 46.8189 15.3868 46.8189H19.2543C19.4626 46.8189 19.5816 47.0274 19.6113 47.2358L20.6823 53.0427C20.7418 53.2214 20.8013 53.2512 20.8608 53.2512C20.9203 53.2512 21.0393 53.2214 21.1286 53.0427L24.2524 47.2656C24.3714 47.0572 24.5499 46.8487 24.7582 46.8487H28.8042C28.9827 46.8487 29.0422 46.938 29.0422 47.0572C29.0422 47.1167 29.0125 47.2061 28.9827 47.2954L24.4309 54.8294L22.0806 59.3558L21.5154 62.6315C21.4559 62.8697 21.2178 63.0782 20.9798 63.0782H17.4098C17.2015 63.0782 17.0825 62.9293 17.0825 62.7208V62.6315L17.737 58.9091Z" fill="#0821FB"/>
<path fill-rule="evenodd" clip-rule="evenodd" d="M55.5201 27.9094C53.9731 27.9094 51.9798 28.0285 50.8493 28.2072C49.8973 28.356 49.5403 28.5943 49.3321 29.6365L47.3388 40.8632C47.309 41.1014 47.4578 41.2801 47.6958 41.2801H51.2956C51.5336 41.2801 51.7418 41.1014 51.7716 40.8632L52.0988 38.9871C52.6641 39.0169 53.4079 39.0467 53.8541 39.0467C58.3167 39.0467 61.5 36.8132 61.5 32.1975C61.5595 29.1601 58.5547 27.9094 55.5201 27.9094ZM54.2706 35.3839C54.1516 35.3839 52.8426 35.3839 52.7534 35.3541L53.4079 31.6317C53.4641 31.6317 53.7788 31.6251 54.1112 31.6181C54.4828 31.6102 54.8764 31.6019 54.9549 31.6019C56.2342 31.6019 57.0374 31.8699 57.0374 32.8229C57.0374 34.5203 55.9962 35.3839 54.2706 35.3839Z" fill="#0821FB"/>
<path d="M55.2821 46.8189H59.596C59.7745 46.8189 59.8637 46.8785 59.8637 46.938C59.8637 47.0274 59.834 47.1167 59.7447 47.2358L53.5864 54.8592L56.9482 62.5719C56.9482 62.5868 56.9556 62.6166 56.9631 62.6464C56.9705 62.6761 56.9779 62.706 56.9779 62.7208C56.9779 62.8995 56.8292 63.0186 56.6209 63.0186H52.3369C52.0691 63.0186 52.0096 62.8697 51.9501 62.6613L49.1833 55.5144L47.9635 62.6017C47.904 62.8399 47.666 63.0484 47.428 63.0484H43.739C43.62 63.0484 43.501 62.9293 43.501 62.8102V62.6315L46.7735 44.1984C46.8033 44.0495 46.9223 43.9602 47.071 43.9602H50.7898C51.0278 43.9602 51.2063 44.1984 51.1766 44.4366L49.4511 54.0552L54.7466 47.1763C54.8954 46.9678 55.0441 46.8189 55.2821 46.8189Z" fill="#0821FB"/>
<path fill-rule="evenodd" clip-rule="evenodd" d="M40.2879 27.9094C36.7774 27.9094 33.8023 29.3685 32.5528 34.014L28.2687 57.6584L28.2618 57.7408C28.2345 58.0664 28.2092 58.3687 28.2092 58.6709C28.2092 62.3635 30.738 64.0907 33.8321 64.0907C37.6996 64.0907 40.5259 62.3933 41.6564 57.6584L45.9108 34.014C45.9183 33.9536 45.9278 33.8855 45.9377 33.8141C45.9669 33.6041 46 33.3656 46 33.21C45.9703 29.4281 43.3225 27.9094 40.2879 27.9094ZM37.1344 57.6584C36.6584 59.4452 35.8848 60.1896 34.5163 60.1896C33.3263 60.1896 32.7313 59.6238 32.7313 58.254C32.7313 58.1681 32.7382 58.0754 32.7453 57.979C32.753 57.8749 32.761 57.7667 32.761 57.6584L37.0749 34.014C37.4319 32.3166 38.3244 31.7211 39.5739 31.8104C40.9127 31.8997 41.5077 32.7335 41.3589 33.746L37.1344 57.6584Z" fill="#0821FB"/>
<path fill-rule="evenodd" clip-rule="evenodd" d="M63.5825 34.014C64.8321 29.3685 67.8071 27.9094 71.3177 27.9094C74.3522 27.9094 77 29.4281 77 33.21C77 33.3656 76.9669 33.6041 76.9377 33.8141C76.9278 33.8855 76.9183 33.9536 76.9108 34.014L72.6564 57.6584C71.5259 62.3933 68.6996 64.0907 64.8321 64.0907C61.738 64.0907 59.2092 62.3635 59.2092 58.6709C59.2092 58.3687 59.2345 58.0665 59.2618 57.741C59.2641 57.7136 59.2664 57.6861 59.2687 57.6584L63.5825 34.014ZM65.5163 60.1896C66.8848 60.1896 67.6584 59.4452 68.1344 57.6584L72.3589 33.746C72.5077 32.7335 71.9127 31.8997 70.5739 31.8104C69.3244 31.7211 68.4319 32.3166 68.0749 34.014L63.761 57.6584C63.761 57.7667 63.753 57.8749 63.7453 57.979C63.7382 58.0753 63.7313 58.1681 63.7313 58.254C63.7313 59.6238 64.3263 60.1896 65.5163 60.1896Z" fill="#0821FB"/>
</svg>
